<?xml version="1.0" encoding="UTF-8" standalone="no"?>
<!-- Created with Inkscape (http://www.inkscape.org/) -->

<svg
   width="210mm"
   height="297mm"
   viewBox="0 0 210 297"
   version="1.1"
   id="svg1"
   xml:space="preserve"
   inkscape:version="1.3 (0e150ed6c4, 2023-07-21)"
   sodipodi:docname="devkit-boxart.svg"
   xmlns:inkscape="http://www.inkscape.org/namespaces/inkscape"
   xmlns:sodipodi="http://sodipodi.sourceforge.net/DTD/sodipodi-0.dtd"
   xmlns="http://www.w3.org/2000/svg"
   xmlns:svg="http://www.w3.org/2000/svg"><sodipodi:namedview
     id="namedview1"
     pagecolor="#ffffff"
     bordercolor="#999999"
     borderopacity="1"
     inkscape:showpageshadow="0"
     inkscape:pageopacity="0"
     inkscape:pagecheckerboard="0"
     inkscape:deskcolor="#d1d1d1"
     inkscape:document-units="mm"
     inkscape:zoom="10.391295"
     inkscape:cx="279.07974"
     inkscape:cy="484.87699"
     inkscape:window-width="3840"
     inkscape:window-height="2054"
     inkscape:window-x="2869"
     inkscape:window-y="-11"
     inkscape:window-maximized="1"
     inkscape:current-layer="layer1" /><defs
     id="defs1" /><g
     inkscape:label="Ebene 1"
     inkscape:groupmode="layer"
     id="layer1"><path
       style="fill:#000000;stroke-width:0.5"
       d="m 99.969515,109.61355 c 0.03149,0.0254 0.0357,0.21867 0.0468,2.12346 0.007,1.15252 0.0172,2.61461 0.0233,3.24908 0.027,2.79855 0.0352,3.78737 0.0434,5.21759 0.005,0.8382 0.014,1.84785 0.0204,2.24366 0.007,0.39582 0.0167,1.33879 0.0227,2.0955 0.006,0.75671 0.0151,1.79494 0.0201,2.30717 0.005,0.51223 0.0144,1.63142 0.0209,2.48708 0.006,0.85567 0.0165,2.04153 0.0224,2.63525 0.006,0.59373 0.0154,1.7272 0.0211,2.51884 0.017,2.37193 0.0301,4.00162 0.0413,5.15408 0.0332,3.41781 0.035,3.80584 0.017,3.81695 -0.0226,0.014 -1.164515,0.0299 -3.254955,0.0452 -0.82655,0.006 -1.90764,0.0159 -2.40241,0.0217 -0.49477,0.006 -1.63777,0.0154 -2.54,0.0212 -0.90223,0.006 -2.16429,0.0156 -2.80459,0.0218 -0.64029,0.006 -1.91664,0.0156 -2.83633,0.021 -0.91969,0.005 -2.07698,0.0147 -2.57175,0.0208 -1.90415,0.0235 -4.91028,0.0521 -6.604,0.063 -0.97208,0.006 -2.08174,0.0161 -2.46592,0.0219 -0.38417,0.006 -1.97961,0.0153 -3.54541,0.021 -1.56581,0.006 -3.05171,0.0152 -3.302,0.021 -0.2503,0.006 -1.21709,0.0153 -2.14842,0.0212 -3.17886,0.02 -4.93123,0.0318 -6.2865,0.0424 -0.74507,0.006 -2.4167,0.0154 -3.71475,0.0213 -1.29805,0.006 -2.89504,0.0163 -3.54888,0.0232 -0.65384,0.007 -1.21582,0.007 -1.24884,-6e-4 l -0.06,-0.0132 0.005,-0.68212 c -0.007,-0.663 0.0116,-1.56589 -0.005,-3.85713 -0.006,-0.88476 -0.0159,-2.38495 -0.0212,-3.33375 -0.005,-0.94879 -0.0149,-2.1156 -0.0214,-2.59291 -0.007,-0.47731 -0.0159,-1.54411 -0.0209,-2.37067 -0.005,-0.82656 -0.0144,-1.87431 -0.0208,-2.32833 -0.006,-0.45403 -0.0164,-1.3589 -0.022,-2.01084 -0.006,-0.65193 -0.0148,-1.56633 -0.0204,-2.032 -0.006,-0.46566 -0.0153,-1.27052 -0.0216,-1.78858 -0.006,-0.51805 -0.0159,-1.54675 -0.0215,-2.286 -0.0159,-2.11064 -0.0431,-4.83297 -0.0636,-6.36058 -0.0392,-2.92789 -0.0481,-4.13847 -0.0303,-4.14946 0.0213,-0.0131 1.83051,-0.0357 4.96231,-0.0616 0.72179,-0.006 1.85526,-0.0161 2.51884,-0.0224 0.66357,-0.006 2.21139,-0.0206 3.43958,-0.0317 1.2282,-0.0111 2.70933,-0.0252 3.29142,-0.0315 0.58208,-0.006 1.66317,-0.0158 2.40241,-0.0214 0.73925,-0.006 1.75843,-0.0148 2.26484,-0.0206 0.50641,-0.006 1.67799,-0.0153 2.6035,-0.0214 0.92551,-0.006 2.23996,-0.0157 2.921,-0.0216 0.68104,-0.006 1.83832,-0.0153 2.57175,-0.021 0.73342,-0.006 1.73355,-0.0152 2.2225,-0.021 0.48895,-0.006 1.48431,-0.0155 2.21191,-0.0214 0.72761,-0.006 1.73726,-0.0154 2.24367,-0.0212 0.50641,-0.006 1.56845,-0.0154 2.36008,-0.0214 0.79164,-0.006 1.85367,-0.0155 2.36009,-0.021 0.50641,-0.005 1.57321,-0.0149 2.37066,-0.0209 0.79746,-0.006 1.92617,-0.0155 2.50825,-0.0212 0.58209,-0.006 1.74414,-0.015 2.58234,-0.0211 0.8382,-0.006 1.95262,-0.0163 2.4765,-0.023 0.77147,-0.01 0.95907,-0.007 0.9871,0.016 z m -4.92411,0.2185 c -0.44238,0.006 -1.50442,0.0149 -2.36008,0.021 -1.87402,0.0132 -3.56496,0.0279 -4.87892,0.0425 -0.53551,0.006 -1.51183,0.0154 -2.16958,0.0212 -0.65776,0.006 -1.57216,0.0151 -2.032,0.021 -1.46408,0.0187 -2.78458,0.0318 -4.28625,0.0426 -0.80328,0.006 -1.81293,0.0155 -2.24367,0.0217 -0.43074,0.006 -1.40705,0.0155 -2.16958,0.0206 -3.15139,0.0213 -4.83471,0.0361 -7.21783,0.0635 -0.49477,0.006 -1.47585,0.0152 -2.18017,0.0211 -2.77426,0.0232 -3.87833,0.0321 -5.28108,0.0423 -0.80328,0.006 -1.91294,0.0156 -2.46592,0.0217 -0.9799,0.0108 -2.55199,0.0256 -4.26508,0.04 -0.46567,0.004 -1.22767,0.008 -1.69334,0.0102 -0.46566,10e-4 -0.85944,0.0111 -0.87506,0.021 -0.0289,0.0183 -0.0317,0.39877 -0.0152,2.05569 0.003,0.3085 0.0116,1.39912 0.0189,2.42358 0.007,1.02447 0.0184,2.43893 0.0247,3.14325 0.006,0.70433 0.0157,1.91876 0.0211,2.69875 0.005,0.78 0.0144,1.75631 0.0201,2.16959 0.015,1.09026 0.0461,4.14154 0.0637,6.26533 0.006,0.70432 0.0158,1.60443 0.0222,2.00025 0.006,0.39582 0.0163,1.47691 0.0222,2.40242 0.006,0.92551 0.0151,2.03994 0.0204,2.4765 0.005,0.43656 0.0148,1.65576 0.0212,2.70933 0.0196,3.25478 0.0337,4.11227 0.0428,4.4652 0.007,0.30796 0.0177,0.56832 0.0241,0.57857 0.007,0.0107 0.78306,0.0134 1.81363,0.006 0.99116,-0.007 2.94511,-0.0174 4.34211,-0.0238 1.397,-0.006 2.9591,-0.0156 3.47133,-0.0206 0.51224,-0.005 2.1553,-0.0141 3.65126,-0.0203 1.49595,-0.006 2.95328,-0.016 3.2385,-0.0217 0.28522,-0.006 1.3044,-0.0154 2.26483,-0.0215 2.73456,-0.0173 4.75647,-0.0302 6.59342,-0.0419 0.93133,-0.006 2.04576,-0.0157 2.4765,-0.0215 0.43074,-0.006 1.22608,-0.0154 1.76742,-0.0212 0.54133,-0.006 1.40811,-0.0153 1.92616,-0.0211 0.51806,-0.006 1.56104,-0.0155 2.31775,-0.0214 1.33638,-0.0105 4.78223,-0.0396 7.45067,-0.0629 0.72178,-0.006 2.08862,-0.0161 3.03741,-0.0217 1.40223,-0.008 3.9159,-0.0314 4.36384,-0.0401 0.0543,-0.001 0.105085,-0.008 0.112815,-0.016 0.008,-0.008 0.0123,-0.27919 0.0101,-0.60325 -0.002,-0.32407 -0.007,-1.05117 -0.0103,-1.61579 -0.003,-0.56462 -0.012,-1.73143 -0.0189,-2.59292 -0.007,-0.86148 -0.0174,-2.28071 -0.02349,-3.15383 -0.006,-0.87313 -0.0158,-2.05423 -0.0218,-2.62467 -0.006,-0.57044 -0.015,-1.48484 -0.0201,-2.032 -0.0375,-3.99746 -0.0587,-5.76373 -0.0757,-6.32883 -7e-4,-0.0233 -10e-4,-0.25665 -7e-4,-0.51858 3.3e-4,-0.26194 -0.003,-0.84297 -0.008,-1.29117 -0.0119,-1.11092 -0.0294,-3.15344 -0.0427,-4.97417 -0.0155,-2.12269 -0.0291,-3.6666 -0.046,-5.22816 -0.008,-0.73925 -0.0161,-1.5965 -0.0181,-1.905 -0.002,-0.30851 -0.005,-0.56918 -0.007,-0.57927 -0.003,-0.0168 -2.73496,-0.006 -4.71278,0.0184 z m 2.87867,1.80516 c 0.0233,0.005 0.0486,0.0149 0.0563,0.0225 0.008,0.008 0.0202,0.88059 0.0279,1.93999 0.008,1.05939 0.0177,2.33574 0.0223,2.83633 0.004,0.50059 0.0148,1.84838 0.0226,2.99508 0.018,2.61577 0.0241,3.33886 0.0389,4.58259 0.0242,2.03861 0.0339,2.99888 0.0436,4.32858 0.005,0.75089 0.0149,1.79387 0.0209,2.31775 0.006,0.52387 0.0156,1.6764 0.0213,2.56117 0.006,0.88476 0.0165,2.41353 0.0239,3.39725 0.007,0.98372 0.0147,2.48274 0.016,3.33116 l 0.003,1.54257 -0.46567,0.007 c -0.25611,0.004 -1.30386,0.0123 -2.32833,0.0191 -1.02447,0.007 -2.29605,0.0165 -2.82575,0.0216 -0.5297,0.005 -1.81081,0.0143 -2.84692,0.0207 -1.0361,0.006 -2.1791,0.0162 -2.54,0.0219 -0.36089,0.006 -1.46102,0.0152 -2.44474,0.0212 -0.98373,0.006 -2.06958,0.0156 -2.413,0.0214 -0.59772,0.0101 -1.62277,0.0199 -4.42384,0.0426 -0.70432,0.006 -1.69968,0.0148 -2.21191,0.0203 -0.51224,0.005 -1.81716,0.0148 -2.89984,0.0207 -2.71641,0.0149 -5.37421,0.0362 -5.38691,0.0433 -0.006,0.003 -1.18692,0.0117 -2.62467,0.0188 -1.43775,0.007 -3.22368,0.0176 -3.96875,0.0233 -7.93822,0.0613 -7.83053,0.0609 -7.85671,0.0291 -0.0761,-3.99725 -0.0624,-8.0972 -0.10164,-12.13635 -0.005,-0.51224 -0.0147,-1.42664 -0.0208,-2.032 -0.006,-0.60537 -0.0159,-1.45309 -0.0219,-1.88384 -0.006,-0.43074 -0.0157,-1.1594 -0.0216,-1.61925 -0.006,-0.45984 -0.0151,-1.14088 -0.0205,-1.51341 -0.005,-0.37254 -0.0148,-1.69651 -0.0209,-2.94217 -0.006,-1.24566 -0.0158,-2.47438 -0.0214,-2.7305 -0.006,-0.25612 -0.0163,-1.16099 -0.0236,-2.01083 -0.007,-0.84984 -0.0193,-1.84454 -0.0267,-2.21045 -0.0108,-0.537 -0.008,-0.67066 0.0146,-0.69321 0.0222,-0.0221 0.20309,-0.028 0.87842,-0.0286 0.46775,-3.7e-4 1.03618,-0.005 1.2632,-0.01 0.22701,-0.005 1.16046,-0.0142 2.07433,-0.0206 0.91387,-0.006 2.24737,-0.0164 2.96333,-0.0221 1.65453,-0.0131 3.68021,-0.0288 5.50334,-0.0425 0.78581,-0.006 1.78593,-0.0156 2.2225,-0.0215 0.43656,-0.006 2.03676,-0.0199 3.556,-0.0309 1.51923,-0.0111 3.2385,-0.0252 3.82058,-0.0314 1.13851,-0.0121 2.16995,-0.0219 5.60917,-0.0535 1.21073,-0.0111 2.64424,-0.0254 3.18558,-0.0317 0.54134,-0.006 1.57956,-0.0159 2.30717,-0.0214 0.7276,-0.006 1.74677,-0.0148 2.26483,-0.0207 0.51805,-0.006 1.61819,-0.016 2.44475,-0.0224 0.82656,-0.006 1.86954,-0.0155 2.31775,-0.0203 0.4482,-0.005 1.5912,-0.0145 2.54,-0.0215 0.94879,-0.007 1.83462,-0.0153 1.9685,-0.0182 0.13388,-0.003 0.26246,-0.001 0.28575,0.004 z m -2.4765,0.22503 c -1.02447,0.007 -2.20557,0.0174 -2.62467,0.0232 -0.4191,0.006 -1.49542,0.0155 -2.39183,0.0218 -1.73976,0.0122 -2.8452,0.0225 -4.33917,0.0406 -1.12665,0.0136 -2.70034,0.0284 -4.56141,0.0429 -0.76253,0.006 -1.76266,0.0156 -2.2225,0.0213 -0.45985,0.006 -1.49807,0.0154 -2.30717,0.0213 -0.8091,0.006 -1.86161,0.0155 -2.33892,0.0212 -0.47731,0.006 -1.66793,0.0155 -2.64583,0.0218 -0.9779,0.006 -2.58286,0.0203 -3.56658,0.0311 -2.59568,0.0286 -3.58569,0.037 -12.54125,0.10647 -1.60655,0.0125 -2.93285,0.0266 -2.94733,0.0314 -0.0207,0.007 -0.024,0.22511 -0.0158,1.02021 0.0118,1.1345 0.0265,2.99627 0.0416,5.26592 0.006,0.8382 0.0152,2.00502 0.0214,2.59292 0.006,0.58791 0.0159,1.67376 0.0215,2.413 0.006,0.73925 0.0152,1.65365 0.0212,2.032 0.006,0.37836 0.0155,1.41182 0.0212,2.29658 0.006,0.88477 0.0153,1.923 0.0214,2.30717 0.006,0.38418 0.0157,1.20809 0.0215,1.83092 0.0288,3.10063 0.0514,5.68405 0.0627,7.15908 0.004,0.75338 0.0123,1.50673 0.0199,2.26008 l 0.002,0.20108 h 0.97367 c 1.55181,0 7.74734,-0.0321 8.21267,-0.0425 0.23283,-0.005 1.44727,-0.0144 2.69875,-0.0205 1.25148,-0.006 2.57545,-0.0157 2.94216,-0.0216 0.36672,-0.006 1.53829,-0.0156 2.6035,-0.0218 3.74554,-0.0215 7.9582,-0.0512 8.91117,-0.0627 0.5297,-0.006 1.39647,-0.0161 1.92617,-0.0216 0.52969,-0.005 1.4298,-0.0149 2.00025,-0.021 0.57044,-0.006 1.69915,-0.016 2.50825,-0.0221 0.80909,-0.006 1.82351,-0.0152 2.25425,-0.0203 0.43074,-0.005 1.53088,-0.0144 2.44475,-0.0206 0.91387,-0.006 2.19022,-0.0158 2.83633,-0.0212 0.64611,-0.005 1.85103,-0.0151 2.67758,-0.0214 0.82656,-0.006 1.57688,-0.0172 1.66738,-0.024 l 0.16454,-0.0125 -0.0113,-1.28363 c -0.006,-0.70599 -0.0156,-1.90751 -0.0209,-2.67004 -0.005,-0.76253 -0.0147,-1.96744 -0.0211,-2.67758 -0.006,-0.71014 -0.0164,-1.82933 -0.0223,-2.48709 -0.006,-0.65775 -0.0152,-1.61501 -0.0206,-2.12725 -0.005,-0.51223 -0.0147,-1.52664 -0.0207,-2.25425 -0.006,-0.7276 -0.0159,-1.73725 -0.0222,-2.24366 -0.0472,-3.82734 -0.0483,-4.0075 -0.0252,-4.03754 0.0135,-0.0175 0.0111,-0.0376 -0.007,-0.0596 -0.022,-0.0265 -0.0285,-0.36464 -0.0325,-1.67746 -0.003,-0.90435 -0.0107,-2.23007 -0.0177,-2.94603 -0.007,-0.71596 -0.0179,-1.98755 -0.0242,-2.82575 -0.006,-0.8382 -0.0133,-1.65735 -0.0155,-1.82033 l -0.004,-0.29634 -0.0741,-0.0116 c -0.0408,-0.006 -0.14076,-0.01 -0.22225,-0.007 -0.0815,0.002 -0.98637,0.0101 -2.01084,0.0171 z m 0.43392,1.8289 c 0.0408,0.004 0.0803,0.0132 0.0879,0.0212 0.0207,0.0215 0.043,2.12506 0.0713,6.73479 0.006,0.94879 0.0152,2.24896 0.0208,2.88925 0.009,1.08076 0.0164,1.72119 0.0425,3.937 0.005,0.46566 0.0146,1.49913 0.0202,2.29658 0.006,0.79746 0.0152,1.98332 0.0212,2.63525 0.0144,1.5363 0.0304,3.54411 0.0449,5.61257 0.0111,1.58708 0.01,1.65484 -0.0269,1.66535 -0.0212,0.006 -0.87672,0.0166 -1.90118,0.0235 -1.02447,0.007 -2.37702,0.0171 -3.00567,0.0227 -1.33707,0.0118 -3.15173,0.0265 -5.15408,0.0415 -1.85927,0.0139 -3.48427,0.0297 -4.43442,0.0431 -0.4191,0.006 -1.9431,0.0199 -3.38667,0.031 -1.44356,0.0112 -3.02471,0.0254 -3.51366,0.0316 -0.48895,0.006 -2.07487,0.0161 -3.52425,0.022 -1.44939,0.006 -2.86862,0.0157 -3.15384,0.0217 -0.53696,0.0113 -1.64405,0.0206 -4.79425,0.0404 -2.54622,0.016 -4.69748,0.032 -5.93725,0.0442 -1.51185,0.0148 -2.34662,0.0141 -2.37297,-0.002 -0.0154,-0.01 -0.0216,-0.13123 -0.0187,-0.36623 0.005,-0.42238 -0.0147,-4.2041 -0.0315,-5.98235 -0.007,-0.6985 -0.0162,-1.85578 -0.0213,-2.57175 -0.005,-0.71596 -0.0147,-1.81133 -0.0212,-2.43416 -0.006,-0.62283 -0.0161,-1.57057 -0.0214,-2.10609 -0.0108,-1.08973 -0.026,-2.31998 -0.0417,-3.3655 -0.006,-0.38417 -0.0154,-1.32238 -0.0214,-2.08491 -0.0173,-2.18764 -0.0469,-5.63485 -0.056,-6.50405 -0.002,-0.17204 0.004,-0.31967 0.012,-0.32808 0.0166,-0.0166 1.55454,-0.0342 4.82719,-0.055 1.15253,-0.007 2.48603,-0.0181 2.96333,-0.0238 0.47731,-0.006 1.76319,-0.0161 2.8575,-0.023 1.09432,-0.007 2.56117,-0.0202 3.25967,-0.0296 0.6985,-0.009 1.80816,-0.0183 2.46592,-0.0199 0.65775,-0.001 1.31021,-0.007 1.44991,-0.0119 0.1397,-0.005 1.2446,-0.0145 2.45534,-0.0213 1.21073,-0.007 2.41088,-0.0164 2.667,-0.0215 0.25611,-0.005 1.17051,-0.0144 2.032,-0.0206 0.86148,-0.006 1.96162,-0.016 2.44475,-0.0216 2.14892,-0.0252 2.84675,-0.0324 4.13808,-0.0423 3.0997,-0.0241 4.05959,-0.0326 4.81542,-0.0424 0.43656,-0.006 1.52717,-0.0161 2.42358,-0.0232 0.89641,-0.007 1.76795,-0.0143 1.93675,-0.016 0.1688,-0.001 0.34025,-3e-5 0.381,0.004 z m -2.19075,0.22288 c -0.77999,0.008 -1.97062,0.0189 -2.64584,0.0248 -0.67521,0.006 -2.18969,0.0197 -3.3655,0.0309 -1.17581,0.0111 -2.83792,0.0254 -3.69358,0.0315 -0.85566,0.006 -1.86055,0.016 -2.23308,0.0217 -0.37254,0.006 -1.33456,0.0155 -2.13784,0.0217 -0.80327,0.006 -2.44157,0.0205 -3.64066,0.0316 -1.1991,0.0113 -3.58987,0.0301 -5.31284,0.0419 -1.72296,0.0118 -3.18029,0.0258 -3.2385,0.0312 -0.0582,0.005 -1.10119,0.0156 -2.31775,0.0228 -1.21655,0.007 -2.24525,0.0167 -2.286,0.0211 -0.0408,0.005 -0.66463,0.009 -1.38641,0.0106 -0.72179,0.002 -2.17911,0.011 -3.2385,0.0215 -1.0594,0.0104 -2.20875,0.0216 -2.55413,0.0247 -0.34537,0.003 -0.63542,0.0133 -0.64454,0.0224 -0.017,0.017 -0.0162,1.01222 0.002,2.8409 0.006,0.57044 0.0153,1.87061 0.0211,2.88925 0.006,1.01865 0.0154,2.27119 0.0213,2.78342 0.006,0.51223 0.0155,1.4695 0.0214,2.12725 0.006,0.65775 0.0153,1.71503 0.0209,2.3495 0.006,0.63447 0.0152,1.4822 0.0212,1.88383 0.006,0.40164 0.0161,1.49225 0.0223,2.42359 0.0179,2.6588 0.0284,3.96606 0.043,5.31283 0.007,0.68686 0.015,1.56792 0.0168,1.95792 0.002,0.38999 0.0109,0.72111 0.0203,0.73582 0.019,0.03 1.66257,0.0315 4.33213,0.004 0.8091,-0.008 2.61408,-0.0215 4.01108,-0.0294 1.69658,-0.01 2.56983,-0.0217 2.62982,-0.037 0.0665,-0.0168 0.0975,-0.0164 0.11948,0.002 0.0224,0.0185 0.28614,0.0198 1.07435,0.005 0.57458,-0.0109 1.6781,-0.0207 2.45227,-0.0216 0.77417,-0.001 1.9648,-0.007 2.64583,-0.0128 0.68104,-0.006 1.95263,-0.0156 2.82575,-0.0213 0.87313,-0.006 2.10185,-0.0155 2.7305,-0.0215 0.62865,-0.006 2.15265,-0.0202 3.38667,-0.0315 1.23402,-0.0113 2.71992,-0.0253 3.302,-0.0311 1.80304,-0.0181 3.34576,-0.0314 4.93183,-0.0427 0.8382,-0.006 1.93834,-0.0156 2.44475,-0.0213 0.50642,-0.006 1.58274,-0.0162 2.39184,-0.0232 0.80909,-0.007 1.47584,-0.0173 1.48166,-0.023 0.0106,-0.0102 0.006,-1.44699 -0.0108,-3.45682 -0.005,-0.5879 -0.0139,-1.73566 -0.0199,-2.55058 -0.006,-0.81492 -0.0159,-1.90077 -0.0221,-2.413 -0.006,-0.51223 -0.0159,-1.5457 -0.0216,-2.29658 -0.0134,-1.76285 -0.0353,-3.73528 -0.0636,-5.715 -0.0108,-0.75695 -0.0208,-1.9601 -0.0434,-5.22817 -0.007,-1.05357 -0.0164,-2.22991 -0.0202,-2.61408 -0.004,-0.38418 -0.008,-0.78618 -0.008,-0.89333 l -0.002,-0.19482 -0.14287,-0.006 c -0.0786,-0.004 -0.22384,-0.005 -0.32279,-0.005 -0.099,0.001 -0.81809,0.008 -1.59809,0.0161 z m -24.42634,8.38147 c 0.0349,0.0136 0.11724,0.0598 0.18292,0.1025 0.19541,0.12706 0.22894,0.13804 0.46322,0.15175 0.4005,0.0234 1.10006,0.19542 1.0352,0.2545 -0.005,0.005 -0.0538,0.0309 -0.10837,0.0586 -0.25573,0.12944 -0.49478,0.41458 -0.59218,0.70638 -0.0687,0.20577 -0.0695,0.55378 -0.002,0.7435 0.20291,0.56844 0.74481,0.91322 1.30939,0.83308 0.39237,-0.0557 0.70833,-0.28603 0.92867,-0.677 0.0361,-0.064 0.0785,-0.11642 0.0942,-0.11642 0.0542,0 0.10736,0.10683 0.18944,0.381 0.0637,0.21287 0.0876,0.33847 0.10558,0.55475 0.0128,0.15377 0.0175,0.29434 0.0106,0.31239 -0.007,0.0181 -0.033,0.037 -0.0579,0.0421 -0.0892,0.0182 -0.69933,0.0332 -1.85504,0.0456 -1.25746,0.0135 -1.28537,0.0159 -1.42875,0.12407 -0.0838,0.0632 -0.15899,0.20816 -0.17407,0.33546 -0.0144,0.12134 -0.048,0.14147 -0.23601,0.14147 -0.20849,0 -0.1934,0.0674 -0.20359,-0.91043 -0.005,-0.47134 -0.0106,-1.32576 -0.0127,-1.8987 -0.005,-1.16073 -0.009,-1.12002 0.14056,-1.18255 0.0843,-0.0352 0.12461,-0.0356 0.2107,-0.002 z m -0.6887,0.53329 c 0.0985,0.0646 0.18639,0.12905 0.19526,0.14319 0.0234,0.0372 0.0143,0.18194 -0.0127,0.20283 -0.0127,0.01 -0.16109,0.0183 -0.3299,0.0191 -0.52563,0.002 -1.18558,0.16149 -1.72403,0.41606 -0.55105,0.26053 -0.94616,0.55734 -1.34009,1.00669 -0.17836,0.20344 -0.44993,0.59817 -0.44878,0.65231 0.001,0.0403 -0.0113,0.0537 0.24608,-0.27101 0.66836,-0.84326 1.45012,-1.32094 2.54716,-1.5564 0.30153,-0.0647 0.94861,-0.0997 1.03082,-0.0557 0.0429,0.023 0.0438,0.0408 0.0578,1.20399 0.008,0.64936 0.0161,1.38821 0.0184,1.6419 0.004,0.44281 0.006,0.46156 0.0465,0.46915 0.24699,0.0461 0.28734,0.0598 0.32766,0.11105 0.0474,0.0603 0.0574,0.17286 0.0163,0.18437 -0.0146,0.004 -0.11218,0.0172 -0.21695,0.0292 -0.22297,0.0255 -0.39044,0.0836 -0.5424,0.18812 -0.13042,0.0897 -0.23891,0.10992 -0.33195,0.0618 -0.0846,-0.0438 -0.1099,-0.0923 -0.1099,-0.21084 0,-0.0838 0.009,-0.10271 0.0779,-0.15929 0.0429,-0.0353 0.10431,-0.07 0.13662,-0.0771 0.0323,-0.007 0.0643,-0.0302 0.071,-0.0515 0.007,-0.0212 0.007,-0.29166 0.001,-0.60104 -0.0101,-0.49953 -0.0162,-0.57558 -0.055,-0.67935 -0.059,-0.15756 -0.19067,-0.35033 -0.30137,-0.44103 -0.17824,-0.14606 -0.54636,-0.25772 -0.57798,-0.17532 -0.02,0.0523 0.0119,0.0741 0.15845,0.10832 0.34148,0.0797 0.56032,0.30522 0.63562,0.65515 0.0364,0.16924 0.0397,0.63197 0.005,0.67407 -0.016,0.0192 -0.0387,0.035 -0.0505,0.035 -0.0525,0 -0.52716,0.25088 -0.66127,0.34949 -0.28353,0.20846 -0.57773,0.57715 -0.67882,0.85067 -0.0206,0.0559 -0.0441,0.11112 -0.0521,0.12276 -0.0265,0.0384 -0.10123,0.31428 -0.13509,0.49839 -0.0272,0.14768 -0.0293,0.22264 -0.0117,0.40836 0.0325,0.34372 0.0654,0.46738 0.20641,0.77654 0.16726,0.36683 0.57714,0.7591 0.99945,0.95652 0.44957,0.21017 1.01597,0.25895 1.38894,0.11962 0.11455,-0.0428 0.33841,-0.19133 0.38497,-0.25543 0.0457,-0.063 0.15307,-0.0444 0.39038,0.0674 0.0696,0.0328 0.10054,0.0601 0.10054,0.0888 0,0.0242 -0.0862,0.12825 -0.20637,0.24923 -0.5059,0.50927 -1.15497,0.75223 -1.90792,0.71415 -0.43151,-0.0218 -0.74228,-0.10348 -1.21696,-0.3198 -0.32065,-0.14613 -0.69092,-0.41401 -1.11687,-0.80803 -0.27649,-0.25577 -0.66551,-0.79366 -0.87231,-1.20613 -0.10712,-0.21367 -0.27131,-0.67838 -0.32851,-0.92982 -0.0946,-0.41578 -0.10975,-0.93516 -0.042,-1.43933 0.0515,-0.38327 0.0626,-0.43738 0.15183,-0.74083 0.13699,-0.46579 0.24757,-0.6887 0.59331,-1.19592 0.178,-0.26115 0.56971,-0.67273 0.77921,-0.81873 0.14785,-0.10304 0.15008,-0.10705 0.12136,-0.21844 -0.007,-0.0259 0.0181,-0.0317 0.13374,-0.0317 0.17361,0 0.22456,-0.0343 0.18383,-0.12366 -0.0336,-0.0738 -0.0125,-0.0913 0.0731,-0.0603 0.14453,0.0523 0.23172,0.0194 0.22046,-0.0831 -0.006,-0.0538 0.0169,-0.0579 0.1638,-0.0297 0.0821,0.0158 0.12213,-0.0122 0.12483,-0.0874 0.002,-0.0516 0.01,-0.0593 0.0551,-0.0534 0.0291,0.004 0.091,0.009 0.13759,0.0106 0.0777,0.004 0.0852,-10e-4 0.0914,-0.0545 0.008,-0.0663 0.0117,-0.0673 0.13952,-0.0331 0.10249,0.0274 0.16934,0.001 0.14666,-0.0582 -0.0187,-0.0486 0.0556,-0.0611 0.12353,-0.021 0.083,0.049 0.16567,0.0295 0.16567,-0.0393 0,-0.0714 0.06,-0.0865 0.13212,-0.0331 0.0888,0.0657 0.13392,0.0482 0.12626,-0.0488 -0.006,-0.072 -0.002,-0.0786 0.0485,-0.0786 0.03,0 0.092,0.019 0.13766,0.0423 0.11267,0.0575 0.12344,0.0545 0.13101,-0.0369 0.004,-0.0499 0.0183,-0.0813 0.0383,-0.085 0.0175,-0.003 0.11236,0.0471 0.21089,0.1117 z m -3.74571,2.56591 c 0,0.0258 0.006,0.0268 0.0317,0.005 0.0175,-0.0145 0.0318,-0.0406 0.0318,-0.0581 0,-0.0258 -0.006,-0.0268 -0.0318,-0.005 -0.0174,0.0145 -0.0317,0.0406 -0.0317,0.0581 z m -0.0628,0.14174 c 3.7e-4,0.0123 0.0146,0.004 0.0317,-0.0186 0.0171,-0.0226 0.0308,-0.0512 0.0304,-0.0635 -3.7e-4,-0.0124 -0.0147,-0.004 -0.0318,0.0186 -0.0171,0.0226 -0.0308,0.0512 -0.0304,0.0635 z m 6.74815,-2.60629 c 0.0127,0.0153 0.0209,0.0556 0.0185,0.0896 -0.004,0.0551 0.004,0.0641 0.0744,0.0817 0.0716,0.018 0.0839,0.0144 0.13319,-0.0387 0.059,-0.0636 0.11424,-0.0632 0.21345,0.002 0.0572,0.0375 0.0619,0.0652 0.025,0.14626 -0.0233,0.051 -0.0201,0.0612 0.033,0.10688 0.0488,0.042 0.0729,0.0482 0.14343,0.0369 0.0776,-0.0124 0.0899,-0.008 0.14607,0.0582 0.078,0.0912 0.0779,0.11585 -4.6e-4,0.15637 -0.1111,0.0575 -0.0671,0.22453 0.0641,0.24342 0.0722,0.0104 0.0736,0.0126 0.0799,0.12128 l 0.006,0.1107 -0.0862,0.0138 c -0.0941,0.0151 -0.10103,0.0213 -0.12816,0.11594 -0.019,0.066 -0.0121,0.0772 0.0932,0.15288 0.0385,0.0277 0.0383,0.0312 -0.0106,0.11836 -0.0494,0.0882 -0.052,0.0896 -0.14199,0.0779 -0.15958,-0.0208 -0.25281,0.0709 -0.17398,0.17106 0.0571,0.0726 0.0555,0.081 -0.0254,0.12999 -0.12094,0.0732 -0.1583,0.076 -0.21386,0.0161 -0.0866,-0.0934 -0.20418,-0.0682 -0.20418,0.0438 0,0.0582 -0.0106,0.0764 -0.0543,0.093 -0.12987,0.0494 -0.24204,0.0194 -0.24204,-0.0648 0,-0.12271 -0.13802,-0.17255 -0.20303,-0.0733 -0.0424,0.0647 -0.10154,0.067 -0.19914,0.008 -0.0977,-0.0592 -0.11012,-0.0828 -0.0732,-0.13918 0.0426,-0.065 0.0388,-0.0972 -0.0179,-0.15047 -0.0435,-0.0408 -0.0561,-0.043 -0.11695,-0.02 -0.0848,0.032 -0.1253,0.0104 -0.18358,-0.0978 l -0.0423,-0.0786 0.0676,-0.0572 c 0.0545,-0.0461 0.0653,-0.0684 0.0559,-0.11475 -0.0144,-0.0707 -0.0389,-0.092 -0.13407,-0.1164 -0.0714,-0.0183 -0.0743,-0.023 -0.0805,-0.12824 -0.006,-0.1044 -0.004,-0.10978 0.0529,-0.12242 0.0326,-0.007 0.0741,-0.0171 0.0921,-0.0219 0.0181,-0.005 0.0454,-0.0434 0.0607,-0.0858 0.0233,-0.0645 0.0231,-0.0798 -0.001,-0.0937 -0.0915,-0.0526 -0.10906,-0.0773 -0.095,-0.13322 0.008,-0.0312 0.0334,-0.0758 0.0567,-0.0992 0.0355,-0.0355 0.0592,-0.0402 0.14554,-0.0288 0.095,0.0126 0.10594,0.009 0.13937,-0.0417 0.0335,-0.0512 0.0337,-0.0593 0.002,-0.10754 -0.0521,-0.0796 -0.0419,-0.11238 0.0496,-0.15907 0.11236,-0.0573 0.16571,-0.0546 0.19519,0.0102 0.0183,0.0401 0.0402,0.0529 0.0906,0.0529 0.0844,0 0.11726,-0.0332 0.11726,-0.11839 0,-0.0421 0.0126,-0.0724 0.0335,-0.0804 0.0602,-0.0231 0.21481,-0.0134 0.23834,0.0148 z m -0.28824,0.44909 c -0.0598,0.0177 -0.11427,0.0412 -0.121,0.0521 -0.007,0.0109 0.0176,0.0463 0.0541,0.0788 0.0629,0.056 0.0751,0.0587 0.23887,0.0518 0.15152,-0.006 0.17969,-0.014 0.23106,-0.0624 0.0681,-0.0642 0.0521,-0.0939 -0.0691,-0.12791 -0.10985,-0.0308 -0.21209,-0.0285 -0.33392,0.008 z m 0.59015,0.33574 c -0.043,0.0457 -0.0453,0.0589 -0.0241,0.13758 0.0173,0.0641 0.0171,0.11054 -5e-4,0.17632 -0.0226,0.0842 -0.0209,0.092 0.0312,0.13681 0.0304,0.0261 0.0692,0.0421 0.0863,0.0356 0.071,-0.0273 0.0994,-0.3297 0.0436,-0.46347 -0.036,-0.0863 -0.0713,-0.0922 -0.13643,-0.0229 z m -0.95258,-0.0214 c -0.0653,0.0787 -0.0579,0.42769 0.0106,0.49934 0.026,0.0272 0.0354,0.0254 0.0755,-0.0147 0.0395,-0.0395 0.0462,-0.0714 0.0485,-0.23216 0.002,-0.15743 -0.004,-0.19373 -0.039,-0.23396 -0.0485,-0.0554 -0.0627,-0.0582 -0.0956,-0.0185 z m 0.46822,0.15196 c -0.0846,0.0592 -0.0392,0.22105 0.0621,0.22105 0.0517,0 0.12372,-0.0739 0.12372,-0.127 0,-0.0474 -0.0701,-0.127 -0.1117,-0.127 -0.0149,0 -0.0482,0.0148 -0.0741,0.0329 z m -0.16935,0.5454 c -0.0505,0.0505 -0.053,0.0598 -0.0241,0.0886 0.0177,0.0177 0.0905,0.0425 0.1618,0.055 0.10667,0.0188 0.15065,0.0167 0.24864,-0.0118 0.14126,-0.0411 0.16738,-0.084 0.091,-0.14969 -0.0479,-0.0412 -0.0757,-0.0462 -0.2376,-0.0426 -0.16758,0.004 -0.18816,0.009 -0.2397,0.0605 z m 1.60398,1.40852 0.11641,0.0134 0.006,0.14149 c 0.006,0.13058 0.001,0.1468 -0.0553,0.21034 l -0.0615,0.0688 -0.31145,0.0173 c -0.1713,0.01 -0.91319,0.0149 -1.64864,0.0119 l -1.33718,-0.005 -0.007,-0.08 c -0.0118,-0.14246 0.13712,-0.30987 0.30294,-0.34062 0.035,-0.007 0.65405,-0.017 1.37584,-0.0236 0.72178,-0.006 1.35519,-0.0152 1.40758,-0.0195 0.0524,-0.004 0.14764,-0.001 0.21167,0.006 z m 4.3329,1.7538 c 0.0732,0.0365 0.0982,0.0767 0.0811,0.13059 -0.0239,0.0753 -0.1142,0.10147 -0.66746,0.19316 -0.4443,0.0736 -0.99342,0.18828 -1.05549,0.22038 -0.0337,0.0174 -0.0656,0.0439 -0.071,0.0589 -0.0136,0.0379 0.0332,0.50811 0.0538,0.54054 0.0222,0.0349 0.10148,0.0337 0.54944,-0.008 0.43824,-0.0412 0.54735,-0.0302 0.61588,0.0621 0.0336,0.0454 0.0386,0.0673 0.0212,0.0952 -0.045,0.0724 -0.12323,0.0873 -0.52765,0.1007 -0.42131,0.0139 -0.60844,0.0463 -0.64075,0.11064 -0.0101,0.0202 -0.0162,0.14614 -0.0136,0.28002 0.003,0.13388 0.006,0.31618 0.007,0.40511 0.004,0.20775 0.038,0.25879 0.17378,0.25582 0.12385,-0.003 0.43864,-0.0683 0.73894,-0.15405 0.3046,-0.0869 0.50452,-0.0964 0.57369,-0.0273 0.0588,0.0588 0.0416,0.13831 -0.0378,0.17444 -0.0318,0.0144 -0.12485,0.0349 -0.20688,0.0455 -0.082,0.0105 -0.25392,0.0482 -0.38198,0.0838 -0.49879,0.13858 -0.85008,0.15944 -1.0286,0.0611 -0.13469,-0.0742 -0.15793,-0.16243 -0.17237,-0.65438 -0.0121,-0.41149 -0.0251,-0.47322 -0.1253,-0.59723 l -0.0468,-0.0579 0.0516,-0.0551 c 0.048,-0.0513 0.0514,-0.0701 0.0496,-0.27032 -0.002,-0.26016 -0.0296,-0.35235 -0.12612,-0.42592 -0.0813,-0.062 -0.0911,-0.11115 -0.0359,-0.17912 0.0312,-0.0384 0.13707,-0.0656 0.67204,-0.17237 1.33211,-0.26589 1.4235,-0.27863 1.54949,-0.21588 z m 2.41397,0.007 c 0.058,0.0233 0.0587,0.0428 0.007,0.20222 -0.0222,0.0689 -0.0565,0.18712 -0.0761,0.26279 -0.0196,0.0757 -0.0435,0.15663 -0.0531,0.17992 -0.01,0.0233 -0.028,0.09 -0.041,0.14816 -0.013,0.0582 -0.0371,0.15346 -0.0536,0.21167 -0.0165,0.0582 -0.0641,0.25347 -0.10583,0.43392 -0.16145,0.6986 -0.2772,1.12087 -0.32485,1.18508 -0.0217,0.0292 -0.0623,0.0655 -0.0903,0.0805 -0.0699,0.0376 -0.24133,0.0206 -0.29659,-0.0294 -0.0763,-0.069 -0.2034,-0.30898 -0.36518,-0.68926 -0.0859,-0.20185 -0.19455,-0.45272 -0.24151,-0.5575 -0.22292,-0.49743 -0.33324,-0.7544 -0.3891,-0.9063 -0.0335,-0.091 -0.0798,-0.20255 -0.10288,-0.24787 -0.0231,-0.0453 -0.0421,-0.10206 -0.0421,-0.12609 0,-0.0764 0.17131,-0.11211 0.28643,-0.0597 0.0647,0.0294 0.14405,0.19122 0.25243,0.51442 0.0391,0.11642 0.1064,0.29263 0.14969,0.39159 0.0433,0.0989 0.11169,0.26088 0.15199,0.35983 0.0403,0.099 0.0924,0.22278 0.11581,0.27517 0.0234,0.0524 0.0967,0.21907 0.16297,0.37041 0.093,0.21256 0.1295,0.27517 0.16025,0.27517 0.0242,0 0.0459,-0.0207 0.0554,-0.0529 0.0375,-0.12691 0.19045,-0.72306 0.22268,-0.86783 0.076,-0.34113 0.2561,-0.97308 0.31678,-1.11125 0.0153,-0.0349 0.0423,-0.0993 0.0599,-0.14301 0.0427,-0.10592 0.13247,-0.14316 0.24047,-0.0997 z m 2.21942,0.0396 c 0.0799,0.0487 0.0886,0.0848 0.11433,0.47836 0.0391,0.59583 0.0427,0.62238 0.0915,0.65653 0.0624,0.0437 0.0656,0.0425 0.16713,-0.0603 0.27208,-0.27554 0.33718,-0.3508 0.60152,-0.69547 0.25647,-0.33442 0.28399,-0.35462 0.36822,-0.27039 0.0348,0.0347 0.0403,0.0584 0.0285,0.12171 -0.0259,0.13941 -0.25891,0.47609 -0.60967,0.88094 -0.1078,0.12442 -0.18168,0.22836 -0.18168,0.25559 0,0.0836 0.38861,0.36617 0.85564,0.62213 0.37196,0.20386 0.44951,0.30207 0.30241,0.38295 -0.0561,0.0309 -0.0654,0.029 -0.18601,-0.0362 -0.0698,-0.0378 -0.27188,-0.14594 -0.44897,-0.24038 -0.21557,-0.11497 -0.38734,-0.22519 -0.51972,-0.3335 -0.31038,-0.25395 -0.38122,-0.3038 -0.40809,-0.2872 -0.0186,0.0114 -0.0216,0.14638 -0.0121,0.52904 0.0125,0.49771 0.0115,0.51539 -0.031,0.56944 -0.0355,0.0451 -0.0586,0.0546 -0.12082,0.0494 -0.0654,-0.005 -0.0828,-0.0185 -0.11612,-0.0866 -0.036,-0.0737 -0.0395,-0.15296 -0.0436,-0.98425 -0.004,-0.73714 -0.0118,-0.96147 -0.044,-1.21489 -0.0325,-0.25608 -0.0346,-0.31665 -0.0119,-0.34396 0.0371,-0.0447 0.12452,-0.0417 0.20446,0.007 z m -13.44801,0.0662 c 0.25295,0.0635 0.43053,0.23432 0.51038,0.49084 0.006,0.02 0.0459,0.0508 0.0881,0.0684 l 0.0767,0.032 -0.0149,0.14323 c -0.008,0.0788 -0.0186,0.14965 -0.0231,0.15748 -0.005,0.008 -0.0374,0.0207 -0.0731,0.0285 -0.0502,0.0111 -0.0734,0.0342 -0.10264,0.10217 -0.0467,0.1089 -0.20487,0.25723 -0.33627,0.31549 -0.12264,0.0544 -0.36895,0.0733 -0.48236,0.0371 -0.11611,-0.0371 -0.26211,-0.13169 -0.26215,-0.16989 -2e-5,-0.0177 0.0292,-0.0677 0.065,-0.11112 0.0722,-0.0876 0.11949,-0.0969 0.23861,-0.0472 0.23605,0.0986 0.49169,-0.064 0.51715,-0.32899 0.0279,-0.2905 -0.19796,-0.47198 -0.49789,-0.40002 l -0.11679,0.028 -0.0713,-0.0778 c -0.10383,-0.1133 -0.0951,-0.15455 0.0464,-0.21931 0.13053,-0.0598 0.31387,-0.0803 0.4383,-0.049 z m 5.48175,0.0429 c 0.45145,0.0401 0.86985,0.28754 0.91772,0.54271 0.0536,0.28544 -0.11074,0.53912 -0.88059,1.35969 -0.58966,0.62852 -0.59815,0.63642 -0.68413,0.63642 -0.0586,0 -0.0851,-0.0126 -0.11146,-0.0528 -0.0542,-0.0827 -0.0216,-0.15158 0.16217,-0.34301 0.16352,-0.17033 0.20278,-0.24828 0.13764,-0.27328 -0.0597,-0.0229 -0.0932,-0.14519 -0.1064,-0.38928 -0.0426,-0.78385 -0.0816,-1.08798 -0.14896,-1.16041 -0.0215,-0.0231 -0.0544,-0.0185 -0.18822,0.0264 -0.21258,0.0714 -0.29333,0.0711 -0.35027,-10e-4 -0.054,-0.0686 -0.055,-0.097 -0.005,-0.14208 0.0542,-0.049 0.3506,-0.13488 0.63539,-0.18403 0.25271,-0.0436 0.32235,-0.0458 0.62222,-0.0191 z m -0.40948,0.26763 c -0.0191,0.0192 -0.0194,0.0394 -0.001,0.0846 0.0357,0.0873 0.10391,0.76966 0.11918,1.19181 0.008,0.22317 0.01,0.23284 0.0373,0.2326 0.0289,-2.4e-4 0.0787,-0.0506 0.30298,-0.30669 0.26047,-0.29733 0.51344,-0.62058 0.56758,-0.72528 0.0189,-0.0365 0.0343,-0.1042 0.0343,-0.15043 0,-0.072 -0.0123,-0.0946 -0.085,-0.15682 -0.0889,-0.0761 -0.31767,-0.15859 -0.51827,-0.18685 -0.15713,-0.0222 -0.42809,-0.012 -0.45719,0.0171 z m 12.05865,0.20481 c 0.0544,0.0544 0.072,0.09 0.072,0.1459 0,0.0406 0.0119,0.0784 0.0264,0.0838 0.0298,0.0111 0.43872,-0.0683 0.61325,-0.11909 0.0897,-0.026 0.13209,-0.0283 0.19761,-0.0105 0.15535,0.0422 0.19787,0.12135 0.10973,0.20415 -0.0532,0.0499 -0.10769,0.0718 -0.46022,0.18411 -0.40996,0.13066 -0.38685,0.11857 -0.42743,0.22364 -0.0283,0.0732 -0.0363,0.15846 -0.0354,0.3789 5e-4,0.15642 0.009,0.32787 0.0186,0.381 0.0653,0.35861 0.0667,0.3727 0.0446,0.42997 -0.0186,0.0482 -0.0353,0.0582 -0.0971,0.0582 -0.16453,0 -0.22311,-0.1714 -0.26406,-0.77259 -0.0165,-0.24162 -0.0476,-0.40133 -0.086,-0.44179 -0.01,-0.0105 -0.10968,-0.007 -0.23063,0.008 -0.1172,0.0143 -0.23725,0.02 -0.26677,0.0126 -0.0835,-0.021 -0.13728,-0.0878 -0.13728,-0.1706 0,-0.0856 0.0549,-0.12386 0.21167,-0.14747 0.16379,-0.0246 0.39109,-0.0766 0.42377,-0.0968 0.0233,-0.0144 0.0316,-0.0636 0.0327,-0.19217 0.001,-0.14359 0.008,-0.17774 0.0411,-0.20186 0.066,-0.0482 0.13665,-0.034 0.21365,0.043 z m -16.06762,0.13252 c 0.0925,0.0503 0.0958,0.0652 0.0408,0.18465 -0.0673,0.146 -0.10503,0.16968 -0.21173,0.13288 -0.10033,-0.0346 -0.1087,-0.0687 -0.0553,-0.22568 0.035,-0.10281 0.0468,-0.117 0.10119,-0.12139 0.0339,-0.002 0.0902,0.0105 0.12511,0.0296 z m 14.71894,0.0629 c 0.0681,0.0477 0.10228,0.1401 0.14119,0.38192 0.0422,0.26236 0.0742,1.09874 0.0469,1.22667 -0.0228,0.10723 -0.0875,0.16292 -0.1769,0.1523 -0.13089,-0.0156 -0.15508,-0.12026 -0.19962,-0.86408 -0.0129,-0.21537 -0.0365,-0.45349 -0.0524,-0.52916 -0.0566,-0.26859 -0.057,-0.28554 -0.009,-0.34596 0.0524,-0.0666 0.17142,-0.077 0.25033,-0.0217 z m -14.31034,0.20461 c 0.0372,0.0384 0.0676,0.0853 0.0676,0.10419 0,0.0345 -0.18378,0.20662 -0.22094,0.20688 -0.0375,2.5e-4 -0.15977,-0.0951 -0.15992,-0.12468 -8e-5,-0.0163 0.0337,-0.0806 0.0751,-0.14287 0.0901,-0.13569 0.13996,-0.14481 0.23814,-0.0435 z m 0.264,0.33766 c 0.0422,0.0318 0.10615,0.17927 0.0895,0.20629 -0.007,0.0105 -0.0793,0.0409 -0.16162,0.0674 l -0.14974,0.0482 -0.0519,-0.0603 c -0.0751,-0.0873 -0.0575,-0.13702 0.0774,-0.21803 0.12971,-0.0779 0.14606,-0.0815 0.19635,-0.0436 z m 0.16299,0.51199 c 0.0335,0.0882 0.0266,0.17732 -0.0154,0.19777 -0.0204,0.01 -0.10372,0.0126 -0.18521,0.006 l -0.14817,-0.012 -0.006,-0.0886 c -0.008,-0.10729 0.0158,-0.12423 0.20278,-0.14538 0.12813,-0.0145 0.13119,-0.0136 0.15242,0.0422 z m -1.47059,0.0965 c -0.007,0.0117 -0.0226,0.0212 -0.0343,0.0212 -0.0117,0 -0.0153,-0.01 -0.008,-0.0212 0.007,-0.0116 0.0226,-0.0211 0.0342,-0.0211 0.0117,0 0.0153,0.01 0.008,0.0211 z m 1.37583,0.26932 c 0.0752,0.0185 0.0928,0.0468 0.08,0.12887 -0.0301,0.19347 -0.0663,0.20869 -0.29167,0.12263 -0.13811,-0.0527 -0.16172,-0.0947 -0.11796,-0.20985 0.0205,-0.0539 0.0288,-0.0568 0.15447,-0.0545 0.0731,0.002 0.15187,0.007 0.17515,0.0129 z m 28.22575,-12.0085 c 0,0.0392 -0.0646,0.0626 -0.0933,0.0339 -0.0162,-0.0162 -0.0137,-0.0285 0.009,-0.0427 0.046,-0.0291 0.0845,-0.025 0.0845,0.009 z"
       id="path1"
       sodipodi:nodetypes="ssscssssssssssssssssssssssscccsssssssccsscccscssssssssssccsscccsccsscsssccscscscsssscsssscssssssssssssccsssssccsssscccsscsssssscccssssssssscscscsssssssscscccssccssscscsccccsccscssscsccsccsssccccsssssssssssssscsssssscsscsssccccccssssssscsccsssscscccccscccccssssccsssccssccccccssscsssccscccscsscssccscsccssssscccscsssssscsccccccscccscsssssscsscsccsccccscssccsscscsccssscsccsscsccssscscssscssscsssssssscsssscccccscsscsscccccsssssccccccccccssssssccscsccsscscssssccccsssscccccssccscsscccccscsscccccsssccccsccccsssscscccscsscccscsscsccccccsssssccssscccsssssscscccscsccscscscssccssssscsssssscssssscscssscssscsssscccscscccscscscscscscssccssssccssssccccccscccccsscsscccccsccssccccsscccscscsccccsscccccssscsccccsssccccscsscccsscssccsscsssssscsssscsss" /></g></svg>
